<svg width="1600" height="900" viewBox="0 0 1600 900" fill="none" xmlns="http://www.w3.org/2000/svg">
  <rect width="1600" height="900" fill="#EAF7F3"/>
  <circle cx="1360" cy="140" r="220" fill="#C6F0E5"/>
  <circle cx="220" cy="740" r="260" fill="#D8F3EA"/>
  <circle cx="860" cy="760" r="140" fill="#BFEBDD"/>
  <rect x="140" y="170" width="1320" height="560" rx="36" fill="#F9FEFC"/>
  <rect x="200" y="230" width="560" height="380" rx="28" fill="#0F766E"/>
  <rect x="830" y="244" width="560" height="24" rx="12" fill="#B7C9D6"/>
  <rect x="830" y="294" width="430" height="18" rx="9" fill="#D3E0E8"/>
  <rect x="830" y="338" width="500" height="18" rx="9" fill="#D3E0E8"/>
  <rect x="830" y="382" width="390" height="18" rx="9" fill="#D3E0E8"/>
  <rect x="830" y="448" width="220" height="54" rx="27" fill="#F59E0B"/>
  <rect x="1080" y="448" width="220" height="54" rx="27" fill="#0F766E"/>
  <rect x="830" y="544" width="220" height="130" rx="24" fill="#E7F6F1"/>
  <rect x="1080" y="544" width="220" height="130" rx="24" fill="#E7F6F1"/>
  <rect x="250" y="290" width="180" height="230" rx="18" fill="#F8FAFC"/>
  <rect x="470" y="290" width="180" height="230" rx="18" fill="#F8FAFC"/>
  <circle cx="340" cy="356" r="42" fill="#F59E0B"/>
  <circle cx="560" cy="356" r="42" fill="#14B8A6"/>
  <rect x="288" y="418" width="104" height="14" rx="7" fill="#D0DCE5"/>
  <rect x="508" y="418" width="104" height="14" rx="7" fill="#D0DCE5"/>
  <rect x="272" y="454" width="136" height="12" rx="6" fill="#E2EAF0"/>
  <rect x="492" y="454" width="136" height="12" rx="6" fill="#E2EAF0"/>
  <path d="M1160 132C1160 185.019 1117.02 228 1064 228C1010.98 228 968 185.019 968 132C968 78.9807 1010.98 36 1064 36C1117.02 36 1160 78.9807 1160 132Z" fill="#F59E0B"/>
  <path d="M1109 131.5L1049.31 191L1019 160.763L1038.47 141.34L1049.31 152.152L1089.53 112L1109 131.5Z" fill="white"/>
  <text x="830" y="182" fill="#10233A" font-family="Segoe UI, Arial, sans-serif" font-size="54" font-weight="700">Bienvenue dans votre espace étudiant</text>
  <text x="830" y="430" fill="#334155" font-family="Segoe UI, Arial, sans-serif" font-size="26">Inscription simple, formations visibles, informations claires.</text>
</svg>
